<svg width="42" height="42" viewBox="0 0 42 42" fill="none" xmlns="http://www.w3.org/2000/svg">
<rect width="42" height="42" rx="12" fill="#16181E"/>
<path d="M11 21C11 23.6522 12.0536 26.1957 13.9289 28.0711C15.8043 29.9464 18.3478 31 21 31C23.6522 31 26.1957 29.9464 28.0711 28.0711C29.9464 26.1957 31 23.6522 31 21C31 18.3478 29.9464 15.8043 28.0711 13.9289C26.1957 12.0536 23.6522 11 21 11C18.3478 11 15.8043 12.0536 13.9289 13.9289C12.0536 15.8043 11 18.3478 11 21Z" stroke="white" stroke-width="1.5"/>
<path d="M21 26V27" stroke="white" stroke-width="1.5" stroke-linecap="round"/>
<path d="M21 15V16" stroke="white" stroke-width="1.5" stroke-linecap="round"/>
<path d="M24 18.5C24 17.1193 22.6569 16 21 16C19.3431 16 18 17.1193 18 18.5C18 19.8807 19.3431 21 21 21C22.6569 21 24 22.1193 24 23.5C24 24.8807 22.6569 26 21 26C19.3431 26 18 24.8807 18 23.5" stroke="white" stroke-width="1.5" stroke-linecap="round"/>
</svg>
