<svg width="42" height="42" viewBox="0 0 42 42" fill="none" xmlns="http://www.w3.org/2000/svg">
<rect width="42" height="42" rx="12" fill="#16181E"/>
<path d="M11 25C11 22.1716 11 20.7574 11.8787 19.8787C12.7574 19 14.1716 19 17 19H25C27.8284 19 29.2426 19 30.1213 19.8787C31 20.7574 31 22.1716 31 25C31 27.8284 31 29.2426 30.1213 30.1213C29.2426 31 27.8284 31 25 31H17C14.1716 31 12.7574 31 11.8787 30.1213C11 29.2426 11 27.8284 11 25Z" stroke="white" stroke-width="1.5"/>
<path d="M15 19V17C15 13.6863 17.6863 11 21 11C24.3137 11 27 13.6863 27 17V19" stroke="white" stroke-width="1.5" stroke-linecap="round"/>
</svg>
