<svg width="106" height="45" viewBox="0 0 106 45" fill="none" xmlns="http://www.w3.org/2000/svg">
<path d="M87.3809 19.8563H83.0179C81.769 13.1172 75.8652 8 68.7774 8C63.0115 8 58.0403 11.3898 55.7047 16.2718H49.4035C47.068 11.3898 42.0968 8 36.3308 8C29.243 8 23.3311 13.1253 22.0822 19.8563H17.7192C16.7704 19.8563 16 20.6267 16 21.5755V22.4919C16 23.4407 16.7704 24.2111 17.7192 24.2111H21.9444C22.7959 31.3963 28.9186 37 36.3308 37C44.3269 37 50.8308 30.4961 50.8308 22.5C50.8308 21.981 50.7984 21.4701 50.7497 20.9673H54.3666C54.3098 21.4701 54.2855 21.981 54.2855 22.5C54.2855 30.4961 60.7894 37 68.7855 37C76.1977 37 82.3205 31.4044 83.172 24.2111H87.3971C88.3459 24.2111 89.1163 23.4407 89.1163 22.4919V21.5755C89.1163 20.6267 88.3459 19.8563 87.3971 19.8563H87.3809ZM36.3308 34.559C29.6809 34.559 24.2637 29.1499 24.2637 22.4919C24.2637 15.8339 29.6728 10.4248 36.3308 10.4248C42.9888 10.4248 48.3979 15.8339 48.3979 22.4919C48.3979 29.1499 42.9888 34.559 36.3308 34.559ZM68.7774 34.559C62.1275 34.559 56.7103 29.1499 56.7103 22.4919C56.7103 15.8339 62.1194 10.4248 68.7774 10.4248C75.4354 10.4248 80.8445 15.8339 80.8445 22.4919C80.8445 29.1499 75.4354 34.559 68.7774 34.559Z" fill="white"/>
<path d="M39.1935 27.2928C38.3501 27.7875 37.4094 28.0308 36.3551 28.0308C34.7819 28.0308 33.46 27.4955 32.3977 26.4251C31.3353 25.3546 30.8082 24.0327 30.8082 22.4595C30.8082 20.8862 31.3353 19.5319 32.3977 18.4614C33.46 17.3909 34.7819 16.8557 36.3551 16.8557C37.4094 16.8557 38.3501 17.1071 39.1773 17.6099C40.0045 18.1127 40.6208 18.7858 41.0182 19.6211L43.3213 18.2992C42.7131 17.0422 41.7886 16.0366 40.5478 15.2906C39.307 14.5445 37.9122 14.1714 36.3551 14.1714C33.979 14.1714 32.0003 14.9662 30.427 16.5475C28.8537 18.1289 28.059 20.0996 28.059 22.4513C28.059 24.8031 28.8456 26.7738 30.427 28.3552C32.0084 29.9365 33.979 30.7313 36.3551 30.7313C37.8879 30.7313 39.2908 30.3582 40.5478 29.6121C41.8129 28.8661 42.778 27.8767 43.4511 26.6359L41.1155 25.2816C40.6776 26.125 40.0288 26.79 39.1935 27.2847V27.2928Z" fill="white"/>
<path d="M71.8672 27.2928C71.0238 27.7875 70.0831 28.0308 69.0288 28.0308C67.4555 28.0308 66.1337 27.4955 65.0713 26.4251C64.009 25.3546 63.4818 24.0327 63.4818 22.4595C63.4818 20.8862 64.009 19.5319 65.0713 18.4614C66.1337 17.3909 67.4555 16.8557 69.0288 16.8557C70.0831 16.8557 71.0238 17.1071 71.851 17.6099C72.6781 18.1127 73.2945 18.7858 73.6918 19.6211L75.995 18.2992C75.3867 17.0422 74.4623 16.0366 73.2215 15.2906C71.9807 14.5445 70.5859 14.1714 69.0288 14.1714C66.6527 14.1714 64.6739 14.9662 63.1007 16.5475C61.5274 18.1289 60.7327 20.0996 60.7327 22.4513C60.7327 24.8031 61.5193 26.7738 63.1007 28.3552C64.682 29.9365 66.6527 30.7313 69.0288 30.7313C70.5615 30.7313 71.9645 30.3582 73.2215 29.6121C74.4866 28.8661 75.4516 27.8767 76.1247 26.6359L73.7892 25.2816C73.3512 26.125 72.7025 26.79 71.8672 27.2847V27.2928Z" fill="white"/>
</svg>
