<svg width="40" height="40" viewBox="0 0 40 40" fill="none" xmlns="http://www.w3.org/2000/svg">
<g clip-path="url(#clip0_5072_206)">
<path d="M20 1.25C17.0379 1.24922 14.1278 2.02863 11.5626 3.50982C8.99745 4.991 6.86764 7.1217 5.38751 9.6875C6.32884 10.2435 7.42414 10.4817 8.51135 10.3669C9.59857 10.2521 10.6199 9.79034 11.4244 9.05C13.7377 6.85033 16.8078 5.62369 20 5.62369C23.1922 5.62369 26.2623 6.85033 28.5756 9.05C29.3801 9.79034 30.4015 10.2521 31.4887 10.3669C32.5759 10.4817 33.6712 10.2435 34.6125 9.6875C33.1324 7.1217 31.0026 4.991 28.4374 3.50982C25.8722 2.02863 22.9621 1.24922 20 1.25Z" fill="#FF6EBE"/>
<path d="M37.9688 27.9688H35.7812V18.125C35.7812 13.9396 34.1186 9.92553 31.159 6.96597C28.1995 4.00641 24.1854 2.34375 20 2.34375C15.8146 2.34375 11.8005 4.00641 8.84097 6.96597C5.88141 9.92553 4.21875 13.9396 4.21875 18.125V27.9688H2.03125V18.125C2.03125 13.3594 3.92438 8.78897 7.29418 5.41918C10.664 2.04938 15.2344 0.15625 20 0.15625C24.7656 0.15625 29.336 2.04938 32.7058 5.41918C36.0756 8.78897 37.9688 13.3594 37.9688 18.125V27.9688Z" fill="#4169A5"/>
<path d="M24.6156 17.7269L19.6156 19.6019C19.4074 19.6801 19.228 19.8199 19.1013 20.0027C18.9745 20.1855 18.9065 20.4026 18.9063 20.625V28.4844C18.556 28.3546 18.186 28.2863 17.8125 28.2825C17.1635 28.2825 16.5291 28.4749 15.9895 28.8355C15.4499 29.196 15.0294 29.7085 14.781 30.3081C14.5327 30.9076 14.4677 31.5674 14.5943 32.2039C14.7209 32.8404 15.0334 33.425 15.4923 33.8839C15.9512 34.3428 16.5359 34.6553 17.1724 34.7819C17.8089 34.9086 18.4686 34.8436 19.0682 34.5952C19.6678 34.3469 20.1802 33.9263 20.5408 33.3867C20.9013 32.8471 21.0938 32.2127 21.0938 31.5637V26.375C22.5765 25.7254 23.8385 24.6588 24.7262 23.3051C25.6139 21.9514 26.089 20.3688 26.0938 18.75C26.0936 18.5733 26.0507 18.3993 25.9686 18.2428C25.8865 18.0863 25.7678 17.9521 25.6225 17.8515C25.4772 17.751 25.3097 17.6871 25.1344 17.6654C24.959 17.6437 24.781 17.6648 24.6156 17.7269Z" fill="#FF6EBE"/>
<path d="M7.34375 25.7812H3.125C2.33764 25.7813 1.58253 26.094 1.02578 26.6508C0.469028 27.2075 0.15625 27.9626 0.15625 28.75V35C0.15625 35.7874 0.469028 36.5425 1.02578 37.0992C1.58253 37.656 2.33764 37.9688 3.125 37.9688H7.34375V25.7812Z" fill="#2D5682"/>
<path d="M10.625 23.9062H8.75C7.96264 23.9063 7.20753 24.219 6.65078 24.7758C6.09403 25.3325 5.78125 26.0876 5.78125 26.875V36.875C5.78125 37.6624 6.09403 38.4175 6.65078 38.9742C7.20753 39.531 7.96264 39.8438 8.75 39.8438H10.625C10.915 39.8436 11.1931 39.7283 11.3982 39.5232C11.6033 39.3181 11.7186 39.04 11.7188 38.75V25C11.7186 24.71 11.6033 24.4319 11.3982 24.2268C11.1931 24.0217 10.915 23.9064 10.625 23.9062Z" fill="#4169A5"/>
<path d="M32.6562 25.7812H36.875C37.6624 25.7813 38.4175 26.094 38.9742 26.6508C39.531 27.2075 39.8438 27.9626 39.8438 28.75V35C39.8438 35.7874 39.531 36.5425 38.9742 37.0992C38.4175 37.656 37.6624 37.9688 36.875 37.9688H32.6562V25.7812Z" fill="#2D5682"/>
<path d="M29.375 23.9062H31.25C32.0374 23.9063 32.7925 24.219 33.3492 24.7758C33.906 25.3325 34.2188 26.0876 34.2188 26.875V36.875C34.2188 37.6624 33.906 38.4175 33.3492 38.9742C32.7925 39.531 32.0374 39.8438 31.25 39.8438H29.375C29.085 39.8436 28.8069 39.7283 28.6018 39.5232C28.3967 39.3181 28.2814 39.04 28.2812 38.75V25C28.2814 24.71 28.3967 24.4319 28.6018 24.2268C28.8069 24.0217 29.085 23.9064 29.375 23.9062Z" fill="#4169A5"/>
</g>
<defs>
<clipPath id="clip0_5072_206">
<rect width="40" height="40" fill="white"/>
</clipPath>
</defs>
</svg>
